<?xml version="1.0" encoding="UTF-8" standalone="no"?>

<svg
   xmlns:dc="http://purl.org/dc/elements/1.1/"
   xmlns:cc="http://creativecommons.org/ns#"
   xmlns:rdf="http://www.w3.org/1999/02/22-rdf-syntax-ns#"
   xmlns:svg="http://www.w3.org/2000/svg"
   xmlns="http://www.w3.org/2000/svg"
   xmlns:sodipodi="http://sodipodi.sourceforge.net/DTD/sodipodi-0.dtd"
   xmlns:inkscape="http://www.inkscape.org/namespaces/inkscape"
   width="103.18518mm"
   height="19.664268mm"
   viewBox="0 0 103.18518 19.664268"
   version="1.1"
   id="svg16"
   inkscape:version="0.92.4 (5da689c313, 2019-01-14)"
   sodipodi:docname="RCG.svg">
  <defs
     id="defs10" />
  <sodipodi:namedview
     id="base"
     pagecolor="#ffffff"
     bordercolor="#666666"
     borderopacity="1.0"
     inkscape:pageopacity="0.0"
     inkscape:pageshadow="2"
     inkscape:zoom="1.4"
     inkscape:cx="-261.62119"
     inkscape:cy="-140.02049"
     inkscape:document-units="mm"
     inkscape:current-layer="layer1"
     showgrid="false"
     inkscape:window-width="3840"
     inkscape:window-height="2107"
     inkscape:window-x="-8"
     inkscape:window-y="-8"
     inkscape:window-maximized="1"
     inkscape:snap-intersection-paths="true"
     inkscape:object-paths="true"
     inkscape:snap-others="false"
     inkscape:snap-nodes="false"
     inkscape:snap-to-guides="false" />
  <metadata
     id="metadata13">
    <rdf:RDF>
      <cc:Work
         rdf:about="">
        <dc:format>image/svg+xml</dc:format>
        <dc:type
           rdf:resource="http://purl.org/dc/dcmitype/StillImage" />
        <dc:title></dc:title>
      </cc:Work>
    </rdf:RDF>
  </metadata>
  <g
     inkscape:label="Calque 1"
     inkscape:groupmode="layer"
     id="layer1"
     transform="translate(-4.8854899,-4.6813462)">
    <g
       aria-label="123 Meal  "
       transform="scale(0.26458333)"
       style="font-style:normal;font-weight:normal;font-size:40px;line-height:1.25;font-family:sans-serif;letter-spacing:0px;word-spacing:0px;opacity:1;fill:#000000;fill-opacity:1;stroke:none"
       id="flowRoot3722">
      <path
         style="font-style:normal;font-variant:normal;font-weight:normal;font-stretch:normal;font-size:85.33333588px;font-family:Modak;-inkscape-font-specification:Modak;fill:#c83737"
         d="m 362.25653,40.431588 v 29.291668 q 0,6.208334 3,8.083334 0.0417,0.208333 0.0417,0.791666 v 0.75 q 0,5.958334 -3.04167,9.041667 -3,3.083334 -8.54167,3.083334 -5.54166,0 -8.79166,-3.083334 -3.875,-3.666667 -3.875,-11.083333 V 34.014922 q 4.375,-2.666667 10,-2.666667 5.66666,0 8.41666,2.416667 2.79167,2.375 2.79167,6.666666 z"
         id="path4869"
         inkscape:connector-curvature="0" />
      <path
         style="font-style:normal;font-variant:normal;font-weight:normal;font-stretch:normal;font-size:85.33333588px;font-family:Modak;-inkscape-font-specification:Modak;fill:#6bce6b;fill-opacity:1"
         d="m 336.63152,70.098256 q 0,3 0.66667,4.833333 0.66667,1.833334 2.33333,2.875001 0.0417,0.208333 0.0417,0.791666 v 0.75 q 0,5.916667 -3.58333,9.208334 -3.16667,2.916667 -7.83334,2.916667 -3.16667,0 -5.79167,-1.5 -2.625,-1.5 -3.75,-4.333334 -1.41666,0 -1.41666,1.375 0,1.166667 1.45833,2.625 -2.70833,1.833334 -8.16667,1.833334 -7.70833,0 -12.33333,-4.166667 -4.58333,-4.208334 -4.58333,-11.708334 0,-7.541667 4.875,-11.666667 4.45833,-3.708333 11.54166,-3.708333 2.41667,0 4.66667,0.333333 1.5,0.291667 1.625,0.333333 0.125,-0.416666 0.125,-0.708333 0,-1.083333 -1.83333,-1.458333 -1.83334,-0.375 -4.79167,-0.375 -6.29167,0 -10.75,2.541666 -2.04167,-3.458333 -2.04167,-8.75 0,-3 0.75,-4.458333 3,-1.375 7.625,-2.416667 4.625,-1.083333 9.75,-1.083333 10.58334,0 16.00001,4.625 5.41666,4.625 5.41666,13.125 z"
         id="path4867"
         inkscape:connector-curvature="0" />
      <path
         style="font-style:normal;font-variant:normal;font-weight:normal;font-stretch:normal;font-size:85.33333588px;font-family:Modak;-inkscape-font-specification:Modak;fill:#ffffff;fill-opacity:1"
         d="m 315.00652,72.139923 q -1.75,0 -1.75,1.583333 0,1.5 2.04167,1.5 1.41666,0 2.08333,-0.666667 0.66667,-0.708333 0.66667,-2.416666 0,0 -3.04167,0 z"
         id="path4865"
         inkscape:connector-curvature="0" />
      <path
         style="font-style:normal;font-variant:normal;font-weight:normal;font-stretch:normal;font-size:85.33333588px;font-family:Modak;-inkscape-font-specification:Modak;fill:#6bce6b;fill-opacity:1"
         d="m 272.04819,92.014923 q -11.54167,0 -18.20834,-6.416667 -6.83333,-6.458333 -6.83333,-17.666667 0,-11.25 7.04167,-17.833334 6.5,-6.125 16.45833,-6.125 9.95833,0 15.95834,5.5 6.04166,5.458334 6.04166,13.458334 0,7.125 -4.95833,10.75 -4.58333,3.416667 -12.5,3.416667 -5.91667,0 -10,-2.458333 -0.33334,0.25 -0.33334,0.916667 0,1.25 3.29167,2.291666 3.29167,1.125 7.45833,1.125 4.20834,0 7.62501,-1.041666 3.45833,-1.083334 5.54166,-2.541667 1,0.875 1.58334,3.25 0.625,2.333333 0.625,4.291667 0,1.916666 -0.375,3.416666 -3.25,2.750001 -6.66667,3.916667 -4.83334,1.75 -11.75,1.75 z"
         id="path4863"
         inkscape:connector-curvature="0" />
      <path
         style="font-style:normal;font-variant:normal;font-weight:normal;font-stretch:normal;font-size:85.33333588px;font-family:Modak;-inkscape-font-specification:Modak;fill:#ffffff;fill-opacity:1"
         d="m 271.50652,63.806589 q 2.08333,0 2.08333,-1.583333 0,-1.5 -2.20833,-1.5 -2.20833,0 -2.54167,2.375 1.16667,0.708333 2.66667,0.708333 z"
         id="path4861"
         inkscape:connector-curvature="0" />
      <path
         style="font-style:normal;font-variant:normal;font-weight:normal;font-stretch:normal;font-size:85.33333588px;font-family:Modak;-inkscape-font-specification:Modak;fill:#c83737"
         d="m 232.50651,91.473257 q -5.70833,0 -8.95833,-1.875 -3.5,-1.958334 -3.79167,-5.541667 l -0.375,-3.916667 q 3.83333,-0.916667 6.45833,-4.75 0.70834,-1.083334 0.70834,-1.875 0,-1.083334 -1.08334,-1.083334 h -0.125 q -0.0417,0.04167 -0.16666,0.04167 -2.91667,6.125 -9.45834,6.125 -3.33333,0 -5.70833,-1.458333 -2.33333,-1.458333 -4.29167,-5.041667 h -0.25 q -1.125,0 -1.125,0.958333 0,0.666667 0.5,1.5 1.66667,2.791667 4.16667,4.375001 1.95833,1.333333 4.125,1.583333 l -0.33333,7.875 q -2.5,1.625 -5.29167,2.333334 -2.75,0.75 -7.875,0.75 -5.08333,0 -9.08333,-2 -4.91667,-2.458334 -4.91667,-6.833334 0,-5.458333 2.16667,-26.958334 1.16666,-11.208334 1.875,-15.666667 4.29166,-3.833334 12.66666,-3.833334 6.08334,0 10.08334,2.25 l 2.29166,7.666667 -1.45833,6.125 q -0.16667,0.625 -0.16667,1.208334 0,1.458333 1.66667,1.5 l 3.95833,-16.458334 q 1.70834,-0.916667 4.45834,-1.583333 2.75,-0.708334 6,-0.708334 6.08333,0 9,2.083334 2.95833,2.041666 3.5,6.916667 0.125,0.916666 0.375,3.041666 3.79167,32.583335 3.79167,38.375002 -4.625,4.875 -13.33334,4.875 z"
         id="path4859"
         inkscape:connector-curvature="0" />
      <path
         style="font-style:normal;font-variant:normal;font-weight:normal;font-stretch:normal;font-size:85.33333588px;font-family:Modak;-inkscape-font-specification:Modak;fill:#fa672a;fill-opacity:1"
         d="m 121.77734,60.770132 h 0.79688 q 0.14062,0.04687 0.75,0.04687 0.84375,5.34375 4.40625,8.390625 3.5625,3.046875 8.15625,3.046875 3.65625,0 3.65625,-1.40625 0,-0.65625 -0.23438,-1.03125 -1.17187,0.234375 -3.04687,0.234375 -4.45313,0 -7.5,-2.8125 -3.04688,-2.8125 -3.04688,-7.5 0,-4.6875 2.90625,-7.453125 2.95313,-2.8125 7.6875,-2.8125 h 0.84375 q 0.375,0 1.03125,0.09375 0.14063,-0.28125 0.14063,-0.609375 0,-1.5 -2.48438,-1.5 -4.125,0 -7.59375,2.390625 -3.42187,2.390625 -4.6875,7.03125 -7.03125,0 -10.82812,-3.328125 -3.23438,-2.8125 -3.23438,-7.359375 0,-7.640625 6.9375,-12.609375 6.98438,-4.96875 18.14063,-4.96875 11.20312,0 18.46875,5.578125 7.21875,5.578125 7.21875,14.4375 0,5.859375 -4.21875,9.65625 -2.0625,-0.984375 -3.60938,-0.984375 -1.54687,0 -1.54687,1.265625 0,0.5625 0.28125,0.796875 3.70312,0 6.75,2.71875 3.79687,3.375 3.79687,9.609375 0,9.46875 -8.01562,14.90625 -7.35938,4.96875 -18.75,4.96875 -11.34375,0 -18.70313,-5.109375 -7.3125,-5.109375 -7.3125,-13.59375 0,-5.203125 3.32813,-8.625 3.375,-3.46875 9.51562,-3.46875 z"
         id="path4857"
         inkscape:connector-curvature="0" />
      <path
         style="font-style:normal;font-variant:normal;font-weight:normal;font-stretch:normal;font-size:85.33333588px;font-family:Modak;-inkscape-font-specification:Modak;fill:#fa672a;fill-opacity:1"
         d="m 107.10547,51.160757 q 0,7.546875 -4.45313,12.5625 -5.015621,5.625 -14.671871,7.546875 0,1.78125 1.59375,1.78125 2.8125,0 6.890625,-1.78125 4.078126,-1.78125 6.328126,-4.21875 4.45312,4.453125 4.45312,11.765625 0,7.265625 -4.17187,11.4375 H 60.933594 q -3.609375,-5.390625 -3.609375,-11.90625 0,-6.5625 2.53125,-11.015625 9.234375,-1.78125 16.734375,-6.515625 7.5,-4.734375 7.5,-10.03125 0,-1.40625 -0.65625,-2.296875 -0.609375,-0.890625 -1.734375,-0.890625 -2.296875,0 -2.296875,2.4375 0,2.390625 1.640625,3.515625 -2.296875,3.421875 -7.078125,6.28125 -4.78125,2.859375 -9.375,4.125 -8.34375,-5.53125 -8.34375,-14.953125 0,-9.421875 7.453125,-14.953125 6.9375,-5.15625 17.765625,-5.15625 10.875,0 18,5.71875 7.640626,6.1875 7.640626,16.546875 z"
         id="path4855"
         inkscape:connector-curvature="0" />
      <path
         style="font-style:normal;font-variant:normal;font-weight:normal;font-stretch:normal;font-size:85.33333588px;font-family:Modak;-inkscape-font-specification:Modak;fill:#fa672a;fill-opacity:1"
         d="m 28.917969,61.285757 q 2.765625,0 4.921875,-0.515625 2.15625,-0.515625 2.15625,-1.546875 0,-0.65625 -0.421875,-1.078125 -2.859375,1.03125 -6.234375,1.03125 -4.59375,0 -7.734375,-3.140625 -3.140625,-3.1875 -3.140625,-9.140625 0,-3.9375 1.640625,-7.640625 5.90625,-0.703125 9.1875,-2.34375 4.59375,-2.34375 7.875,-7.546875 h 8.390625 q 4.03125,0 5.953125,1.5 2.25,1.828125 2.25,6.421875 v 49.78125 q -2.390625,2.203125 -5.578125,3.375 -3.140625,1.125 -6.46875,1.125 -5.484375,0 -8.90625,-2.625 -3.890625,-2.953125 -3.890625,-8.625 z"
         id="path4847"
         inkscape:connector-curvature="0" />
    </g>
    <path
       style="fill:#6bce6b;fill-opacity:1;stroke:#6bce6b;stroke-width:0.00895048px;stroke-linecap:butt;stroke-linejoin:miter;stroke-opacity:1"
       d="m 71.164283,11.160896 c 0.770523,-6.5344653 -6.118857,-8.0569249 -5.669814,-4.4726498 0.247743,2.2869543 0.282958,2.40995 3.163694,2.1586323 1.333321,1.2675975 2.504172,2.3193635 2.50612,2.3140175 z"
       id="path4632-0"
       inkscape:connector-curvature="0"
       sodipodi:nodetypes="cccc" />
    <path
       style="fill:#6bce6b;fill-opacity:1;stroke:#6bce6b;stroke-width:0.03918073px;stroke-linecap:butt;stroke-linejoin:miter;stroke-opacity:1"
       d="m 105.11191,17.527978 c 0,0 2.72005,1.290087 2.92365,3.632827 0.2036,2.342739 -1.68498,0.237063 -1.70604,0.223117 -0.021,-0.01394 0.26679,2.377603 -1.22163,2.475217 -1.48839,0.09762 -1.27074,-2.482189 -1.27074,-2.482189 0,0 -1.70605,2.175401 -1.692,-0.09762 0.16122,-1.613822 1.42802,-3.152664 2.96676,-3.751352 z"
       id="path4677"
       inkscape:connector-curvature="0"
       sodipodi:nodetypes="csccccc" />
    <path
       style="fill:#fa672a;fill-opacity:1;stroke:#fa672a;stroke-width:0.0473628px;stroke-linecap:butt;stroke-linejoin:miter;stroke-opacity:1"
       d="m 103.59908,17.732813 c 0,0 -0.67523,-0.110594 -0.8615,-1.419349 -0.18626,-1.308747 -0.7606,-5.751121 -0.67522,-6.4700113 0.0854,-0.7188892 0.0155,-1.5944629 1.56777,-1.6866274 1.55224,-0.092164 2.39046,-0.055302 2.98032,0.036859 0.58985,0.092165 1.32716,0.3778771 1.31164,1.6405445 -0.0155,1.2626672 -0.61314,6.1935162 -0.70627,6.5529602 -0.0931,0.359448 -0.36478,1.327182 -0.77613,1.345617 -0.41553,-0.0024 -1.33196,-0.525339 -1.33196,-0.525339 0.002,-0.0034 -1.03968,0.523975 -1.50865,0.525346 z"
       id="path4679"
       inkscape:connector-curvature="0"
       sodipodi:nodetypes="cccscccccc" />
    <path
       style="fill:#6bce6b;fill-opacity:1;stroke:#6bce6b;stroke-width:0.00895048px;stroke-linecap:butt;stroke-linejoin:miter;stroke-opacity:1"
       d="m 72.254178,11.197849 c -1.012776,-6.5013226 5.815282,-8.2787022 5.49972,-4.6802178 -0.162601,2.29458 -0.193222,2.4187992 -3.081307,2.274687 -1.285303,1.3162618 -2.416268,2.4108008 -2.418413,2.4055308 z"
       id="path4632-0-0"
       inkscape:connector-curvature="0"
       sodipodi:nodetypes="cccc" />
  </g>
</svg>
